<?xml version="1.0" encoding="UTF-8"?>
<svg id="Layer_1" xmlns="http://www.w3.org/2000/svg" version="1.1" viewBox="0 0 1080 600">
  <!-- Generator: Adobe Illustrator 30.1.0, SVG Export Plug-In . SVG Version: 2.1.1 Build 136)  -->
  <defs>
    <style>
      .st0 {
        fill: #ec2f5b;
      }

      .st1 {
        fill: #1b0f13;
      }
    </style>
  </defs>
  <g>
    <g>
      <path class="st0" d="M120.3,290.6v3.1c0,0,6.2.6,6.2.6v3c0,0-6.3-.6-6.3-.6l-.2,5.8-3.9-.4.4-14.9,10.7,1v3.1c0,0-6.9-.6-6.9-.6Z"/>
      <path class="st0" d="M129.8,303.3l.4-14.9,10.9,1v3c0,0-7.2-.7-7.2-.7v2.8c0,0,6.6.6,6.6.6v2.9c0,0-6.8-.6-6.8-.6v3.1c0,0,7.4.7,7.4.7v3.1c0,0-11.4-1-11.4-1Z"/>
      <path class="st0" d="M155.1,305.6l-1.2-3-6.3-.6-1.3,2.8-4.3-.4,7.2-14.2,3.8.3,6.3,15.5-4.3-.4ZM151,294.3l-2.2,4.9,4.1.4-1.9-5.3Z"/>
      <path class="st0" d="M167.1,294.9l-.3,11.8-3.9-.4.3-11.8-4.6-.4v-3.1c0,0,13.1,1.2,13.1,1.2v3.1c0,0-4.7-.4-4.7-.4Z"/>
      <path class="st0" d="M186.9,305.4c-.3.7-.8,1.3-1.5,1.8-.6.5-1.4.8-2.2,1-.9.2-1.8.3-2.9.2-1.1,0-2-.3-2.9-.7s-1.6-.8-2.1-1.4c-.6-.6-1-1.3-1.3-2-.3-.8-.4-1.6-.4-2.5l.3-9.3,3.9.4-.2,9c0,.4,0,.8.1,1.2.1.4.3.7.5,1,.2.3.5.6.9.8.4.2.9.3,1.4.4.5,0,1,0,1.4-.1.4-.1.7-.3,1-.6.3-.3.4-.6.6-.9.1-.4.2-.7.2-1.1l.2-9,3.9.4-.3,9.3c0,.9-.2,1.7-.6,2.4Z"/>
      <path class="st0" d="M199.6,309.7l-3.4-6.2h-1.3c0-.1-.2,5.8-.2,5.8l-3.8-.4.4-14.9,6.2.6c.8,0,1.5.2,2.3.4.7.2,1.4.5,2,.9.6.4,1,.9,1.4,1.5s.5,1.3.5,2.2c0,1-.3,1.8-1,2.5-.6.6-1.5,1-2.5,1.2l4.1,6.7-4.6-.4ZM199.7,299.4c0-.3,0-.6-.2-.9s-.4-.4-.6-.6c-.2-.1-.5-.2-.8-.3s-.6-.1-.9-.1l-2.1-.2v3.5c0,0,1.8.2,1.8.2.3,0,.7,0,1,0,.3,0,.6,0,.9-.2.3-.1.5-.3.7-.5.2-.2.3-.5.3-.9Z"/>
      <path class="st0" d="M206.6,310.4l.4-14.9,3.9.4-.4,14.9-3.9-.4Z"/>
      <path class="st0" d="M224.6,312l-6.2-10.3h0s-.2,9.7-.2,9.7l-3.8-.3.4-14.9,4.5.4,6.2,10.3h0s.2-9.7.2-9.7l3.8.3-.4,14.9-4.4-.4Z"/>
      <path class="st0" d="M244.4,313.9c-1.1.1-2.2.2-3.5,0-1.3-.1-2.5-.4-3.6-.9-1.1-.5-2-1.1-2.8-1.9-.8-.8-1.4-1.6-1.8-2.6-.4-1-.6-2.1-.6-3.3,0-1.2.3-2.2.8-3.2s1.1-1.7,1.9-2.3c.8-.6,1.8-1,2.8-1.3,1.1-.3,2.2-.3,3.5-.2,1.3.1,2.5.4,3.6.9,1.1.5,2,1,2.6,1.7l-2.5,2.4c-.4-.4-.9-.8-1.5-1.1-.6-.3-1.3-.5-2.1-.6-.7,0-1.3,0-1.9.2s-1.1.5-1.5.8c-.4.4-.8.8-1,1.4-.3.5-.4,1.2-.4,1.8,0,.7,0,1.3.3,1.9.2.6.5,1.1.9,1.6.4.5.9.8,1.5,1.1.6.3,1.3.5,2.1.5.5,0,.9,0,1.3,0,.4,0,.8,0,1.2-.2v-2.7c0,0-3-.3-3-.3v-2.9c0,0,6.8.6,6.8.6l-.2,7.9c-.8.3-1.7.5-2.8.7Z"/>
      <path class="st1" d="M43.1,325.6c-1.6-.1-3.1-.5-4.4-1.1-1.3-.6-2.5-1.3-3.5-2.3-1-.9-1.7-2-2.3-3.3-.5-1.2-.8-2.6-.7-4.1s.4-2.8,1-3.9c.6-1.1,1.4-2.1,2.4-2.9,1-.8,2.2-1.3,3.5-1.6,1.3-.3,2.8-.4,4.3-.3,1.6.1,3,.5,4.4,1.1,1.4.6,2.5,1.3,3.4,2.2l-4.1,4c-.4-.5-.9-.9-1.4-1.2-.6-.3-1.3-.5-2.1-.6-.5,0-1.1,0-1.6.2-.5.2-1,.4-1.4.7-.4.3-.7.8-1,1.2-.3.5-.4,1.1-.4,1.7,0,1.3.3,2.4,1,3.2.7.9,1.9,1.4,3.5,1.5.3,0,.6,0,.9,0,.3,0,.5,0,.7-.1v-1.4s-3.2-.3-3.2-.3v-4.9c.1,0,9.3.8,9.3.8l-.3,10.1c-.5.2-1,.4-1.7.6s-1.3.3-2,.4c-.7,0-1.4.2-2.2.2-.8,0-1.5,0-2.3,0Z"/>
      <path class="st1" d="M54.4,316.8c0-1.5.4-2.8,1-3.9s1.4-2.1,2.4-2.8c1-.7,2.2-1.3,3.6-1.6,1.4-.3,2.9-.4,4.4-.3s3.1.5,4.4,1.1c1.3.6,2.5,1.3,3.5,2.2,1,.9,1.7,2,2.3,3.2.5,1.2.8,2.6.7,4.1s-.4,2.8-1,3.9c-.6,1.2-1.4,2.1-2.4,2.9-1,.8-2.2,1.3-3.6,1.7-1.4.3-2.9.4-4.4.3s-3.1-.5-4.4-1.1c-1.3-.6-2.5-1.4-3.5-2.3-1-.9-1.7-2.1-2.3-3.3-.5-1.3-.8-2.6-.7-4.1ZM61.6,317.5c0,.6,0,1.2.3,1.7.2.5.4,1,.8,1.4.3.4.8.7,1.2,1,.5.2,1,.4,1.6.4s1.1,0,1.6-.2.9-.4,1.3-.7c.4-.3.7-.7.9-1.2.2-.5.3-1,.3-1.6,0-.6,0-1.1-.3-1.7-.2-.5-.5-1-.8-1.3-.4-.4-.8-.7-1.2-.9s-1-.4-1.6-.4-1.1,0-1.6.1c-.5.1-.9.4-1.3.7-.4.3-.6.7-.9,1.2-.2.5-.3,1-.3,1.6Z"/>
      <path class="st1" d="M86.4,329.6c-.8,0-1.6-.2-2.4-.4-.8-.2-1.5-.5-2.3-.8-.7-.3-1.4-.7-2-1.1-.6-.4-1.2-.8-1.7-1.3l4.2-3.7c.5.5,1.1,1,1.8,1.4.8.4,1.6.7,2.4.8.4,0,.7,0,1,0,.3,0,.5-.3.5-.6,0-.2,0-.3-.1-.5-.1-.1-.3-.3-.5-.4-.3-.2-.6-.3-1.1-.5-.5-.2-1-.4-1.7-.7-.7-.3-1.3-.6-1.9-.9-.6-.3-1.2-.7-1.6-1.2-.5-.5-.8-1-1.1-1.6-.3-.6-.4-1.3-.4-2.1,0-1.1.3-2.1.8-2.8.5-.8,1.2-1.3,2-1.8.8-.4,1.7-.7,2.7-.9,1-.1,2-.2,3,0,1.3.1,2.7.5,4,1.1,1.4.6,2.5,1.4,3.6,2.4l-4.3,3.5c-.4-.6-1-1-1.6-1.3-.7-.3-1.2-.5-1.8-.6-.5,0-.9,0-1.2,0-.3.1-.5.3-.5.6,0,.3.1.5.5.7.3.2.8.4,1.5.7.7.3,1.5.6,2.2.9.8.4,1.5.8,2.2,1.3.7.5,1.2,1.1,1.6,1.8.4.7.6,1.5.6,2.5,0,1.1-.3,2.1-.8,2.8-.5.8-1.2,1.4-2,1.9-.8.5-1.7.8-2.7,1-1,.2-2,.2-3,.1Z"/>
      <path class="st1" d="M104.8,324.8l-.2,5.9-6.7-.6.5-18.4,8.6.8c1,0,2,.3,3,.6,1,.3,1.8.7,2.6,1.3.8.5,1.4,1.2,1.8,2.1.5.8.7,1.8.6,3,0,1.1-.3,2.1-.8,2.8-.5.8-1.1,1.3-1.9,1.8-.8.4-1.7.7-2.7.8-1,.1-2,.2-3.1,0l-1.9-.2ZM105,317.2v3c0,0,1.3.1,1.3.1.5,0,1,0,1.4-.2.4-.2.7-.6.7-1.1,0-.3,0-.5-.1-.7-.1-.2-.3-.3-.5-.5s-.4-.2-.7-.3c-.2,0-.5-.1-.7-.1h-1.4Z"/>
      <path class="st1" d="M117.2,322.6c0-1.5.4-2.8,1-3.9.6-1.1,1.4-2.1,2.4-2.8,1-.7,2.2-1.3,3.6-1.6,1.4-.3,2.9-.4,4.4-.3,1.6.1,3.1.5,4.4,1.1s2.5,1.3,3.5,2.2c1,.9,1.7,2,2.3,3.2.5,1.2.8,2.6.7,4.1s-.4,2.8-1,4c-.6,1.2-1.4,2.1-2.4,2.9-1,.8-2.2,1.3-3.6,1.7-1.4.3-2.9.4-4.4.3-1.6-.1-3.1-.5-4.4-1.1-1.3-.6-2.5-1.4-3.5-2.3s-1.7-2.1-2.3-3.3c-.5-1.3-.8-2.6-.7-4.1ZM124.4,323.2c0,.6,0,1.2.3,1.7.2.5.4,1,.8,1.4.3.4.8.7,1.2,1,.5.2,1,.4,1.6.4.6,0,1.1,0,1.6-.2s.9-.4,1.3-.7c.4-.3.7-.7.9-1.2.2-.5.3-1,.3-1.6,0-.6,0-1.1-.3-1.7-.2-.5-.5-1-.8-1.3-.4-.4-.8-.7-1.2-.9s-1-.4-1.6-.4c-.6,0-1.1,0-1.6.1-.5.1-.9.4-1.3.7-.4.3-.6.7-.9,1.2-.2.5-.3,1-.3,1.6Z"/>
      <path class="st1" d="M149.7,325.7c0-1.5.4-2.8,1-3.9.6-1.1,1.4-2.1,2.4-2.9,1-.8,2.2-1.3,3.5-1.6,1.3-.3,2.8-.4,4.3-.3,1.5.1,3,.5,4.4,1.1,1.4.6,2.5,1.3,3.4,2.2l-4.3,4.2c-.4-.5-.8-.9-1.4-1.2-.6-.3-1.2-.5-1.9-.5-.6,0-1.1,0-1.6.1-.5.1-.9.4-1.3.7-.4.3-.7.7-.9,1.2-.2.5-.3,1-.4,1.6s0,1.2.3,1.7c.2.5.5.9.8,1.3.4.4.8.7,1.3.9.5.2,1,.4,1.6.4.8,0,1.4,0,2-.3.6-.2,1-.5,1.3-.9l4,4.9c-.9.7-2.1,1.3-3.4,1.7-1.3.4-2.8.5-4.5.3-1.5-.1-2.9-.5-4.2-1.1-1.3-.6-2.5-1.4-3.4-2.3-1-.9-1.7-2-2.2-3.3-.5-1.2-.8-2.6-.7-4Z"/>
      <path class="st1" d="M169.6,327.4c0-1.5.4-2.8,1-3.9s1.4-2.1,2.4-2.8c1-.7,2.2-1.3,3.6-1.6,1.4-.3,2.9-.4,4.4-.3s3.1.5,4.4,1.1c1.3.6,2.5,1.3,3.5,2.2,1,.9,1.7,2,2.3,3.2.5,1.2.8,2.6.7,4.1s-.4,2.8-1,3.9c-.6,1.2-1.4,2.1-2.4,2.9-1,.8-2.2,1.3-3.6,1.7-1.4.3-2.9.4-4.4.3s-3.1-.5-4.4-1.1c-1.3-.6-2.5-1.4-3.5-2.3-1-.9-1.7-2.1-2.3-3.3-.5-1.3-.8-2.6-.7-4.1ZM176.8,328.1c0,.6,0,1.2.3,1.7.2.5.4,1,.8,1.4.3.4.8.7,1.2,1,.5.2,1,.4,1.6.4s1.1,0,1.6-.2.9-.4,1.3-.7c.4-.3.7-.7.9-1.2.2-.5.3-1,.3-1.6,0-.6,0-1.1-.3-1.7-.2-.5-.5-1-.8-1.3-.4-.4-.8-.7-1.2-.9s-1-.4-1.6-.4-1.1,0-1.6.1c-.5.1-.9.4-1.3.7-.4.3-.6.7-.9,1.2-.2.5-.3,1-.3,1.6Z"/>
      <path class="st1" d="M195.6,320.7l6.8.6-.4,13.1,6.7.6v5.3c-.1,0-13.6-1.2-13.6-1.2l.5-18.4Z"/>
      <path class="st1" d="M211.7,322.1l6.8.6-.4,13.1,6.7.6v5.3c-.1,0-13.6-1.2-13.6-1.2l.5-18.4Z"/>
      <path class="st1" d="M227.8,323.6l13.8,1.3v5.1c-.1,0-7.6-.7-7.6-.7v1.6s7,.6,7,.6v4.8c-.1,0-7.1-.6-7.1-.6v1.7s7.9.7,7.9.7v5.1c-.1,0-14.4-1.3-14.4-1.3l.5-18.4Z"/>
      <path class="st1" d="M244.3,334.4c0-1.5.4-2.8,1-3.9.6-1.1,1.4-2.1,2.4-2.9,1-.8,2.2-1.3,3.5-1.6,1.3-.3,2.8-.4,4.3-.3,1.5.1,3,.5,4.4,1.1,1.4.6,2.5,1.3,3.4,2.2l-4.3,4.2c-.4-.5-.8-.9-1.4-1.2-.6-.3-1.2-.5-1.9-.5-.6,0-1.1,0-1.6.1-.5.1-.9.4-1.3.7-.4.3-.7.7-.9,1.2-.2.5-.3,1-.4,1.6s0,1.2.3,1.7c.2.5.5.9.8,1.3.4.4.8.7,1.3.9.5.2,1,.4,1.6.4.8,0,1.4,0,2-.3.6-.2,1-.5,1.3-.9l4,4.9c-.9.7-2.1,1.3-3.4,1.7-1.3.4-2.8.5-4.5.3-1.5-.1-2.9-.5-4.2-1.1-1.3-.6-2.5-1.4-3.4-2.3-1-.9-1.7-2-2.2-3.3-.5-1.2-.8-2.6-.7-4Z"/>
      <path class="st1" d="M275.1,346.4l-6.7-.6.4-13.2-4.9-.5v-5.2c.1,0,16.8,1.5,16.8,1.5v5.2c-.1,0-5.1-.5-5.1-.5l-.4,13.2Z"/>
      <path class="st1" d="M283.2,328.7l6.8.6-.5,18.4-6.8-.6.5-18.4Z"/>
      <path class="st1" d="M292,329.5l7.6.7,3,11.7h.1s3.5-11.1,3.5-11.1l7.6.7-7.8,17.7-7.5-.7-6.6-19.1Z"/>
      <path class="st1" d="M315.8,331.7l13.8,1.3v5.1c-.1,0-7.6-.7-7.6-.7v1.6s7,.6,7,.6v4.8c-.1,0-7.1-.6-7.1-.6v1.7s7.9.7,7.9.7v5.1c-.1,0-14.4-1.3-14.4-1.3l.5-18.4Z"/>
    </g>
    <g>
      <g>
        <path class="st0" d="M870.5,197.2c1.3-2.5,3.4-2.5,4.9.2,3.5,6.7,3.6,15.4-2.1,29.9-8.2,21-27.6,65.2-39.5,105.2-.7,2.4-1.8,3.4-5.2,2-9.1-4.2-14.4-10.8-17.2-24.8-6.2-31.1-10.7-78.8-9.5-99,.3-3.2,1.5-3.8,4-2,6.2,4.5,9.3,11.7,10.7,27.4,1.8,19.7,4,48.6,8.5,79.6,9-35.1,33.7-97.1,45.5-118.6Z"/>
        <path class="st0" d="M879.6,252.3c-1.4-7.9-.6-12,2.4-16.4,3.1-4.7,7.4-6.3,9.8-4.9,2.6,1.6,2.3,4,1.1,9-.4,1.3-.6,2.6-1,4.1,4.3,18.4,12.9,33.1,16.6,46.8,2,7.8,3.2,16.3-2.4,22.3,11.7-7.3,16.3-20.6,17.9-32.1.3-2.3,2.5-2.1,3.8-.7,1.3,1.6,2.8,6.8,1.3,13.5-3.3,14.9-14.4,24.8-28.2,27.9-11.4,2.4-23.4,1.4-33.9-9.6-7.5-8-11-21.1-6-27.9,1.8-2.4,3.6-1.9,4.8,1.2.7,1.5,1.2,3.1,1.9,4.7,4.7-12.5,9.5-26.9,12.1-37.9ZM872.6,300.6c6.6,10.9,14.8,18,20.7,14.8,8.2-4.4-4.4-34.8-10.2-50.4-2.5,11.5-6.4,23.6-10.6,35.6Z"/>
        <path class="st0" d="M944.1,294.6c4.4.7,7.2,5.6,6.7,11.3-.6,5.5-4.7,9.6-9.1,8.9-4.4-.7-7.4-6.2-6.7-11.3.7-5.7,4.7-9.6,9.1-8.9Z"/>
      </g>
      <g>
        <path class="st1" d="M101.1,255.7c-6.7,8.7-17.6,12.4-32.7,11-10.5-1-19.6-4.9-27.2-11.8-7.6-6.9-12.7-15.5-15.4-25.8l27.3-10.2c1,3.6,2.5,6.8,4.5,9.6,2,2.8,4.7,4.4,7.9,4.7,4.7.4,7.7-1.3,9.1-5.1,1.4-3.8,1.9-9.3,1.7-16.3l-3.6-103.8,34,3.2,3.7,106.9c.6,16.3-2.5,28.8-9.2,37.6Z"/>
        <path class="st1" d="M198.5,275.4l-7.2-29-34-3.2-5.2,27.9-34.2-3.2,31.3-152.6,42.9,4,41.9,159.5-35.7-3.3ZM171.7,151.1h-.9c0,0-10.5,65.1-10.5,65.1l25.8,2.4-14.5-67.5Z"/>
        <path class="st1" d="M320,284.9c-6.6,3.4-15,4.6-25.4,3.7-8.8-.8-16.9-3.6-24.2-8.3-7.3-4.7-13.7-10.9-19.1-18.7-5.4-7.8-9.7-16.8-12.9-27.1-3.2-10.3-5-21.5-5.4-33.6-.4-12.2.6-23.2,3.1-33.1,2.5-9.9,6.2-18.2,11.1-24.9,4.9-6.7,10.8-11.7,17.9-15,7.1-3.3,15-4.5,23.8-3.7,10.1.9,18.6,3.6,25.5,8,6.9,4.4,12.5,9.6,16.8,15.5l-17.5,23.8c-2.7-3.8-5.7-6.8-8.9-9.2-3.3-2.4-7.3-3.8-12.2-4.2-4.6-.4-8.5.5-11.7,2.6-3.3,2.2-6,5.3-8.2,9.4-2.2,4.1-3.8,9.1-4.7,14.9-.9,5.8-1.3,12.1-1,18.9.2,6.8,1,13.1,2.4,19.1,1.3,6,3.3,11.3,5.8,15.9,2.5,4.6,5.5,8.4,9,11.2,3.5,2.8,7.5,4.4,12.1,4.9,4.6.4,8.5-.4,11.8-2.4,3.3-2,5.9-4.6,7.8-7.6l19.9,26.2c-3.9,5.6-9.2,10.2-15.7,13.6Z"/>
        <path class="st1" d="M414.3,295.6l-34.8-75.5h-.6c0,0,2.5,72.5,2.5,72.5l-34.4-3.2-5.4-156,34.4,3.2,2.3,65h.6c0,0,28.9-62,28.9-62l38.2,3.6-36.4,67.8,44.2,88.5-39.5-3.7Z"/>
        <path class="st1" d="M522.5,187.3c-2.7-3.3-5.7-6-9.2-8-3.5-2-7.1-3.2-10.8-3.5-3.8-.4-7.3.6-10.2,2.8-3,2.2-4.4,6.2-4.2,11.9.2,4.9,1.9,8.8,5.1,11.8,3.2,3,8,6.4,14.2,10.2,3.5,2.1,7.2,4.5,11.1,7.3,3.9,2.8,7.5,6.1,10.7,9.9,3.3,3.8,6,8.3,8.3,13.4,2.2,5.1,3.5,11.1,3.7,17.8.3,8.4-.7,15.7-3.1,21.8-2.4,6.2-5.6,11.1-9.9,14.9-4.2,3.8-9.2,6.5-14.8,8.1-5.7,1.6-11.5,2.1-17.7,1.5-9.1-.9-17.5-3.4-25.1-7.6-7.6-4.2-13.8-8.9-18.5-14l16.6-24.8c3.4,3.8,7.3,7,11.6,9.5,4.3,2.5,8.7,4,13.1,4.4,4.1.4,7.6-.7,10.3-3.2,2.7-2.5,4-6.3,3.9-11.3-.2-5.1-2-9.4-5.6-12.7-3.5-3.3-8.6-7-15.3-11-4.2-2.4-8.2-5.1-11.9-7.9-3.7-2.8-7-6.2-9.9-9.9s-5.2-8.1-6.9-13c-1.7-4.8-2.7-10.5-2.9-17-.3-8.7.8-16,3.4-22,2.6-6,6-10.8,10.4-14.3,4.3-3.5,9.2-6,14.6-7.4,5.4-1.4,10.9-1.8,16.5-1.3,8.3.8,15.7,2.9,22.4,6.2,6.6,3.4,12.3,7.7,16.8,12.9l-16.8,24.2Z"/>
        <path class="st1" d="M661.3,240.5c.4,12.3-.5,23.5-2.9,33.5-2.4,10-5.9,18.3-10.6,25-4.7,6.7-10.6,11.7-17.7,15-7.1,3.3-15.1,4.5-24,3.7-9-.8-17.1-3.6-24.5-8.2-7.3-4.6-13.6-10.8-18.8-18.5-5.2-7.7-9.4-16.7-12.4-27.2-3.1-10.5-4.8-21.9-5.2-34.2-.4-12.3.5-23.4,2.8-33.2,2.3-9.8,5.8-18.1,10.5-24.7,4.7-6.7,10.6-11.6,17.7-14.8,7.1-3.2,15.1-4.4,24.3-3.5,9,.8,17.1,3.5,24.4,8.1,7.3,4.6,13.6,10.6,18.8,18.2,5.2,7.6,9.4,16.6,12.4,26.9,3.1,10.3,4.8,21.6,5.2,34ZM626.2,237.2c-.2-6.8-1-13.1-2.1-19-1.2-5.9-2.8-11.1-4.9-15.5-2.1-4.4-4.6-8-7.5-10.7-2.9-2.7-6.3-4.2-10.2-4.6-3.8-.4-7.2.5-10,2.7-2.8,2.2-5.1,5.3-6.9,9.3-1.8,4.1-3,9-3.7,14.7-.7,5.7-1,12-.7,18.7.2,6.8.9,13.1,2,19.1,1.1,6,2.7,11.2,4.8,15.6,2.1,4.4,4.6,8,7.6,10.8,3,2.8,6.4,4.3,10.3,4.7,3.8.4,7.1-.6,9.9-2.8,2.8-2.2,5-5.4,6.8-9.5,1.8-4.1,3.1-9,3.9-14.8.8-5.8,1.1-12.1.8-18.8Z"/>
        <path class="st1" d="M741.5,326.3l-38.3-98.3h-.6c0,0,4.2,95,4.2,95l-30.5-2.9-5.4-156,37.6,3.5,38.2,99.6h.6c0,0-4-96.3-4-96.3l29.5,2.8,5.4,156-36.5-3.4Z"/>
      </g>
      <g>
        <path class="st1" d="M379.8,458.3c-6.7,8.7-17.6,12.4-32.7,11-10.5-1-19.6-4.9-27.2-11.8-7.6-6.9-12.7-15.5-15.4-25.8l27.3-10.2c1,3.6,2.5,6.8,4.5,9.6,2,2.8,4.7,4.4,7.9,4.7,4.7.4,7.7-1.3,9.1-5.1s1.9-9.3,1.7-16.3l-3.6-103.8,34,3.2,3.7,106.9c.6,16.3-2.5,28.8-9.2,37.6Z"/>
        <path class="st1" d="M477.2,478l-7.2-29-34-3.2-5.2,27.9-34.2-3.2,31.3-152.6,42.9,4,41.9,159.5-35.7-3.3ZM450.3,353.8h-.9c0,0-10.5,65.1-10.5,65.1l25.8,2.4-14.5-67.5Z"/>
        <path class="st1" d="M598.7,487.5c-6.6,3.4-15,4.6-25.4,3.7-8.8-.8-16.9-3.6-24.2-8.3-7.3-4.7-13.7-10.9-19.1-18.7-5.4-7.8-9.7-16.8-12.9-27.1-3.2-10.3-5-21.5-5.4-33.6-.4-12.2.6-23.2,3.1-33.1,2.5-9.9,6.2-18.2,11.1-24.9,4.9-6.7,10.8-11.7,17.9-15,7.1-3.3,15-4.5,23.8-3.7,10.1.9,18.6,3.6,25.5,8,6.9,4.4,12.5,9.6,16.8,15.5l-17.5,23.8c-2.7-3.8-5.7-6.8-8.9-9.2-3.3-2.4-7.3-3.8-12.2-4.2-4.6-.4-8.5.5-11.7,2.6-3.3,2.2-6,5.3-8.2,9.4-2.2,4.1-3.8,9.1-4.7,14.9-.9,5.8-1.3,12.1-1,18.9.2,6.8,1,13.1,2.4,19.1,1.3,6,3.3,11.3,5.8,15.9,2.5,4.6,5.5,8.4,9,11.2,3.5,2.8,7.5,4.4,12.1,4.9,4.6.4,8.5-.4,11.8-2.4,3.3-2,5.9-4.6,7.8-7.6l19.9,26.2c-3.9,5.6-9.2,10.2-15.7,13.6Z"/>
        <path class="st1" d="M693,498.2l-34.8-75.5h-.6c0,0,2.5,72.5,2.5,72.5l-34.4-3.2-5.4-156,34.4,3.2,2.3,65h.6c0,0,28.9-62,28.9-62l38.2,3.6-36.4,67.8,44.2,88.5-39.5-3.7Z"/>
        <path class="st1" d="M801.2,390c-2.7-3.3-5.7-6-9.2-8-3.5-2-7.1-3.2-10.8-3.5-3.8-.4-7.3.6-10.2,2.8-3,2.2-4.4,6.2-4.2,11.9.2,4.9,1.9,8.8,5.1,11.8,3.2,3,8,6.4,14.2,10.2,3.5,2.1,7.2,4.5,11.1,7.3,3.9,2.8,7.5,6.1,10.7,9.9,3.3,3.8,6,8.3,8.3,13.4,2.2,5.1,3.5,11.1,3.7,17.8.3,8.4-.7,15.7-3.1,21.8-2.4,6.2-5.6,11.1-9.9,14.9-4.2,3.8-9.2,6.5-14.8,8.1-5.6,1.6-11.5,2.1-17.7,1.5-9.1-.9-17.5-3.4-25.1-7.6-7.6-4.2-13.8-8.9-18.5-14l16.6-24.8c3.4,3.8,7.3,7,11.6,9.5,4.3,2.5,8.7,4,13.1,4.4,4.1.4,7.6-.7,10.3-3.2,2.8-2.5,4-6.3,3.9-11.3-.2-5.1-2-9.4-5.6-12.7-3.5-3.3-8.6-7-15.3-11-4.2-2.4-8.2-5.1-11.9-7.9-3.7-2.8-7-6.2-9.9-9.9-2.9-3.8-5.2-8.1-6.9-13-1.7-4.8-2.7-10.5-2.9-17-.3-8.7.8-16,3.4-22,2.6-6,6-10.8,10.4-14.3s9.2-6,14.6-7.4c5.4-1.4,10.9-1.8,16.5-1.3,8.3.8,15.7,2.9,22.4,6.2,6.6,3.4,12.3,7.7,16.8,12.9l-16.8,24.2Z"/>
        <path class="st1" d="M939.9,443.2c.4,12.3-.5,23.5-2.9,33.5-2.4,10-5.9,18.3-10.6,25-4.7,6.7-10.6,11.7-17.7,15-7.1,3.3-15.1,4.5-24,3.7-9-.8-17.1-3.6-24.5-8.2-7.3-4.6-13.6-10.8-18.8-18.5-5.2-7.7-9.4-16.7-12.4-27.2-3.1-10.5-4.8-21.9-5.2-34.2s.5-23.4,2.8-33.2c2.3-9.8,5.8-18.1,10.5-24.7,4.7-6.7,10.6-11.6,17.7-14.8,7.1-3.2,15.1-4.4,24.3-3.5,9,.8,17.1,3.5,24.4,8.1,7.3,4.6,13.6,10.6,18.8,18.2,5.2,7.6,9.4,16.6,12.4,26.9,3.1,10.3,4.8,21.6,5.2,34ZM904.9,439.9c-.2-6.8-1-13.1-2.2-19-1.2-5.9-2.8-11.1-4.9-15.5-2.1-4.4-4.6-8-7.5-10.7-2.9-2.7-6.3-4.2-10.2-4.6-3.8-.4-7.2.5-10,2.7-2.8,2.2-5.1,5.3-6.9,9.3-1.8,4.1-3,9-3.7,14.7-.7,5.7-1,12-.7,18.7.2,6.8.9,13.1,2,19.1,1.1,6,2.7,11.2,4.8,15.6,2.1,4.4,4.6,8,7.6,10.8,3,2.8,6.4,4.3,10.3,4.7,3.8.4,7.1-.6,9.9-2.8,2.8-2.2,5-5.4,6.8-9.5,1.8-4.1,3.1-9,3.9-14.8.8-5.8,1.1-12.1.8-18.8Z"/>
        <path class="st1" d="M1020.2,528.9l-38.3-98.3h-.6c0,0,4.2,95,4.2,95l-30.5-2.9-5.4-156,37.6,3.5,38.2,99.6h.6c0,0-4-96.3-4-96.3l29.5,2.8,5.4,156-36.5-3.4Z"/>
      </g>
    </g>
    <g>
      <path class="st0" d="M359.2,503.3l-1-2.6-5.4-.5-1.1,2.4-3.6-.4,6.2-12.2,3.3.3,5.4,13.3-3.7-.4ZM355.7,493.6l-1.9,4.2,3.5.3-1.6-4.5Z"/>
      <path class="st0" d="M371.9,504.6l-2.9-5.3h-1.1c0-.1-.1,4.9-.1,4.9l-3.3-.3.3-12.7,5.3.5c.7,0,1.3.2,1.9.4.6.2,1.2.5,1.7.8s.9.8,1.2,1.3c.3.5.4,1.1.4,1.9,0,.9-.3,1.6-.8,2.1-.5.5-1.2.9-2.2,1.1l3.5,5.8-3.9-.4ZM372,495.7c0-.3,0-.5-.2-.7-.1-.2-.3-.4-.5-.5-.2-.1-.5-.2-.7-.3-.3,0-.5-.1-.8-.1l-1.8-.2v3c0,0,1.5.2,1.5.2.3,0,.6,0,.9,0,.3,0,.6,0,.8-.1.2,0,.4-.2.6-.4.2-.2.2-.4.2-.8Z"/>
      <path class="st0" d="M385.3,505.8l-2.9-5.3h-1.1c0-.1-.1,4.9-.1,4.9l-3.3-.3.3-12.7,5.3.5c.7,0,1.3.2,1.9.4.6.2,1.2.5,1.7.8.5.3.9.8,1.2,1.3.3.5.4,1.1.4,1.9,0,.9-.3,1.6-.8,2.1-.5.5-1.2.9-2.2,1.1l3.5,5.8-3.9-.4ZM385.4,497c0-.3,0-.5-.2-.7s-.3-.4-.5-.5c-.2-.1-.5-.2-.7-.3-.3,0-.5-.1-.8-.1l-1.8-.2v3c0,0,1.5.2,1.5.2.3,0,.6,0,.8,0,.3,0,.6,0,.8-.1.2,0,.4-.2.6-.4.2-.2.2-.4.2-.8Z"/>
      <path class="st0" d="M400.7,507.3l-1-2.6-5.4-.5-1.1,2.4-3.6-.3,6.2-12.2,3.3.3,5.4,13.3-3.7-.4ZM397.2,497.6l-1.9,4.2,3.5.3-1.6-4.5Z"/>
      <path class="st0" d="M414.8,508.7l-5.4-8.9h0s-.1,8.3-.1,8.3l-3.3-.3.3-12.7,3.8.4,5.4,8.8h0s.1-8.3.1-8.3l3.3.3-.3,12.7-3.8-.4Z"/>
      <path class="st0" d="M431.8,510.3c-.9.1-1.9.1-3,0-1.1-.1-2.1-.4-3.1-.8-.9-.4-1.7-.9-2.4-1.6-.7-.7-1.2-1.4-1.5-2.3-.4-.9-.5-1.8-.5-2.8,0-1,.2-1.9.7-2.7.4-.8,1-1.4,1.7-2,.7-.5,1.5-.9,2.4-1.1.9-.2,1.9-.3,3-.2,1.1.1,2.1.4,3,.8.9.4,1.7.9,2.3,1.5l-2.2,2c-.3-.4-.7-.7-1.3-1-.5-.3-1.1-.4-1.8-.5-.6,0-1.1,0-1.6.1-.5.1-.9.4-1.3.7-.4.3-.7.7-.9,1.2-.2.5-.3,1-.3,1.6,0,.6,0,1.1.2,1.6.2.5.4,1,.8,1.3.4.4.8.7,1.3,1,.5.2,1.1.4,1.8.5.4,0,.8,0,1.1,0,.4,0,.7,0,1-.2v-2.3c0,0-2.6-.3-2.6-.3v-2.5c0,0,5.8.5,5.8.5l-.2,6.7c-.7.3-1.5.4-2.4.6Z"/>
      <path class="st0" d="M437.4,510.8l.3-12.7,9.3.9v2.6c0,0-6.2-.6-6.2-.6v2.4c0,0,5.7.6,5.7.6v2.5c0,0-5.8-.6-5.8-.6v2.6c0,0,6.4.6,6.4.6v2.6c0,0-9.8-.9-9.8-.9Z"/>
      <path class="st0" d="M462.8,506.8c0,1.1-.3,2.1-.8,2.8-.5.8-1.1,1.4-1.8,1.8-.8.5-1.6.8-2.5.9-.9.2-1.9.2-2.8,0l-5.2-.5.3-12.7,5,.5c1,0,1.9.3,2.9.6.9.3,1.8.7,2.5,1.3.7.6,1.3,1.3,1.8,2.1.4.9.6,1.9.6,3.1ZM459.3,506.5c0-.7,0-1.3-.3-1.8-.2-.5-.6-.9-1-1.2s-.9-.6-1.4-.7c-.5-.2-1.1-.3-1.7-.3l-1.7-.2-.2,7.4,1.6.2c.6,0,1.2,0,1.7,0,.6,0,1.1-.2,1.5-.5.4-.2.8-.6,1.1-1.1.3-.5.4-1,.4-1.7Z"/>
      <path class="st0" d="M480.3,515l-1.3-1.4c-.5.4-1,.7-1.7.9-.7.2-1.5.3-2.4.2-.6,0-1.2-.2-1.8-.4s-1.1-.5-1.6-.9c-.5-.4-.8-.8-1.1-1.3s-.4-1.1-.4-1.7c0-.4.1-.8.3-1.2.2-.4.4-.7.7-.9.3-.3.6-.5,1-.7.4-.2.7-.3,1.1-.5-.4-.4-.8-.9-1-1.4-.2-.5-.4-1-.4-1.5,0-.6.2-1.1.4-1.4.3-.4.6-.7,1-.9s.9-.4,1.4-.4c.5,0,1,0,1.5,0,.5,0,1,.2,1.5.3.5.2,1,.4,1.3.7.4.3.7.7.9,1.1.2.4.3.9.3,1.5,0,.4,0,.8-.2,1.1-.2.3-.4.6-.6.8-.3.2-.6.5-.9.6-.3.2-.7.3-1.1.5l1.7,1.8,1.4-1.8,3.6.3-3.1,3.4,3.4,3.5-4.1-.4ZM474.8,509c-.4.1-.7.3-1,.5-.3.2-.5.6-.5,1.1,0,.3,0,.5.1.7.1.2.2.4.4.5.2.2.4.3.6.4.2,0,.4.2.7.2.4,0,.8,0,1.2-.1.3-.1.6-.3.9-.6l-2.4-2.6ZM477.4,504.9c0-.3-.1-.6-.3-.9-.2-.3-.5-.4-1-.4-.4,0-.7,0-1,.2-.3.2-.4.5-.4.8,0,.3,0,.6.2.9.2.3.4.6.8.9.4-.1.8-.3,1.2-.6.3-.2.5-.6.5-.9Z"/>
      <path class="st0" d="M504.7,510.9c0,1.1-.3,2.1-.8,2.8-.5.8-1.1,1.4-1.8,1.8-.8.5-1.6.8-2.5.9-.9.2-1.9.2-2.8,0l-5.2-.5.3-12.7,5,.5c1,0,1.9.3,2.9.6.9.3,1.8.7,2.5,1.3.7.6,1.3,1.3,1.8,2.1.4.9.6,1.9.6,3.1ZM501.2,510.5c0-.7,0-1.3-.3-1.8-.2-.5-.6-.9-1-1.2s-.9-.6-1.4-.7c-.5-.2-1.1-.3-1.7-.3l-1.7-.2-.2,7.4,1.6.2c.6,0,1.2,0,1.7,0,.6,0,1.1-.2,1.5-.5.4-.2.8-.6,1.1-1.1s.4-1,.4-1.7Z"/>
      <path class="st0" d="M507.1,517.5l.3-12.7,3.4.3-.3,12.7-3.4-.3Z"/>
      <path class="st0" d="M521.2,518.9l-2.9-5.3h-1.1c0-.1-.1,4.9-.1,4.9l-3.3-.3.3-12.7,5.3.5c.7,0,1.3.2,1.9.4.6.2,1.2.5,1.7.8s.9.8,1.2,1.3c.3.5.4,1.1.4,1.9,0,.9-.3,1.6-.8,2.1-.5.5-1.2.9-2.2,1.1l3.5,5.8-3.9-.4ZM521.3,510c0-.3,0-.5-.2-.7s-.3-.4-.5-.5c-.2-.1-.5-.2-.7-.3-.3,0-.5-.1-.8-.1l-1.8-.2v3c0,0,1.5.2,1.5.2.3,0,.6,0,.8,0,.3,0,.6,0,.8-.1.2,0,.4-.2.6-.4.2-.2.2-.4.2-.8Z"/>
      <path class="st0" d="M527.2,519.4l.3-12.7,9.3.9v2.6c0,0-6.2-.6-6.2-.6v2.4c0,0,5.7.6,5.7.6v2.5c0,0-5.8-.6-5.8-.6v2.6c0,0,6.4.6,6.4.6v2.6c0,0-9.8-.9-9.8-.9Z"/>
      <path class="st0" d="M549.4,521.3c-.9.3-2,.4-3.1.3-1.1-.1-2.1-.4-3-.8-.9-.4-1.7-.9-2.3-1.6-.7-.7-1.2-1.4-1.5-2.3-.4-.9-.5-1.8-.5-2.8,0-1,.2-1.9.7-2.7.4-.8,1-1.4,1.7-2,.7-.5,1.5-.9,2.4-1.1.9-.2,1.9-.3,3-.2,1,0,1.9.3,2.9.8.9.4,1.7.9,2.3,1.6l-2.3,1.9c-.3-.4-.7-.8-1.2-1-.5-.2-1-.4-1.6-.4-.6,0-1.1,0-1.6.1-.5.2-.9.4-1.3.7-.4.3-.6.7-.9,1.2-.2.5-.3,1-.3,1.5,0,.6,0,1.1.3,1.6.2.5.4.9.8,1.3.3.4.7.7,1.2.9.5.2,1,.4,1.6.4.7,0,1.3,0,1.8-.2.5-.2.9-.5,1.2-.8l2.3,2.2c-.6.6-1.4,1-2.3,1.3Z"/>
      <path class="st0" d="M559.6,512.4l-.3,10.1-3.4-.3.3-10.1-3.9-.4v-2.6c0,0,11.3,1.1,11.3,1.1v2.6c0,0-4-.4-4-.4Z"/>
      <path class="st0" d="M565.2,523.1l.3-12.7,9.3.9v2.6c0,0-6.2-.6-6.2-.6v2.4c0,0,5.7.6,5.7.6v2.5c0,0-5.8-.6-5.8-.6v2.6c0,0,6.4.6,6.4.6v2.6c0,0-9.8-.9-9.8-.9Z"/>
      <path class="st0" d="M590.6,519.1c0,1.1-.3,2.1-.8,2.8-.5.8-1.1,1.4-1.8,1.8-.8.5-1.6.8-2.5.9-.9.2-1.9.2-2.8,0l-5.2-.5.3-12.7,5,.5c1,0,1.9.3,2.9.6.9.3,1.8.7,2.5,1.3.7.6,1.3,1.3,1.8,2.1.4.9.6,1.9.6,3.1ZM587.1,518.8c0-.7,0-1.3-.3-1.8-.2-.5-.6-.9-1-1.2-.4-.3-.9-.6-1.4-.7-.5-.2-1.1-.3-1.7-.3l-1.7-.2-.2,7.4,1.6.2c.6,0,1.2,0,1.7,0,.6,0,1.1-.2,1.5-.5.4-.2.8-.6,1.1-1.1.3-.5.4-1,.4-1.7Z"/>
      <path class="st0" d="M609.3,523.6c0,.7-.2,1.3-.5,1.7-.3.4-.7.8-1.2,1-.5.2-1.1.4-1.7.5-.6,0-1.3,0-2,0l-5.5-.5.3-12.7,5.5.5c.5,0,1.1.2,1.6.3.6.2,1.1.4,1.5.7.5.3.8.7,1.1,1.1.3.4.4,1,.4,1.6,0,.7-.2,1.3-.7,1.7-.4.4-1,.7-1.7.8h0c.4.1.8.3,1.1.5.3.2.6.4.9.7.2.3.4.6.6.9.1.4.2.7.2,1.2ZM605.9,523c0-.5-.2-.9-.6-1.2-.4-.2-1-.4-1.7-.5l-1.9-.2v2.9c0,0,1.8.2,1.8.2.3,0,.5,0,.8,0,.3,0,.5,0,.8-.2.2,0,.4-.2.6-.4.1-.2.2-.4.2-.7ZM605.6,517.9c0-.4-.2-.8-.5-1-.4-.2-.9-.4-1.6-.5l-1.6-.2v2.6c0,0,1.7.2,1.7.2.6,0,1.1,0,1.5-.2.4-.2.5-.5.5-1Z"/>
      <path class="st0" d="M618.7,522.8v5.4c-.1,0-3.5-.3-3.5-.3v-5.4c.1,0-4.9-7.8-4.9-7.8l4.1.4,2.8,5,3.1-4.4,3.9.4-5.5,6.8Z"/>
      <path class="st1" d="M634.4,525.2c0-1.4.3-2.6.9-3.6.6-1.1,1.3-1.9,2.2-2.6.9-.7,2-1.2,3.3-1.5,1.2-.3,2.6-.4,4-.3,1.4.1,2.8.5,4,1,1.3.5,2.3,1.2,3.1,2l-3.9,3.9c-.3-.4-.8-.8-1.3-1.1-.5-.3-1.1-.4-1.7-.5-.5,0-1,0-1.5.1-.5.1-.9.3-1.2.6-.3.3-.6.6-.8,1.1-.2.4-.3.9-.3,1.5,0,.6,0,1.1.3,1.5.2.5.4.9.8,1.2.3.4.7.6,1.2.8.4.2.9.3,1.4.4.7,0,1.3,0,1.9-.2s.9-.5,1.2-.8l3.7,4.6c-.9.7-1.9,1.2-3.1,1.5-1.2.3-2.6.4-4.2.3-1.4-.1-2.7-.5-3.9-1-1.2-.5-2.3-1.3-3.2-2.1-.9-.9-1.6-1.9-2.1-3-.5-1.1-.7-2.4-.7-3.7Z"/>
      <path class="st1" d="M665.3,530.2l-5.1-.5-.2,6.5-6.2-.6.4-17,6.2.6v5.8c-.1,0,4.9.5,4.9.5v-5.8c.1,0,6.4.6,6.4.6l-.4,17-6.2-.6.2-6.5Z"/>
      <path class="st1" d="M680.9,521.2l6.6.6,6.8,17.7-6.8-.6-.9-2.6-5.9-.6-1,2.4-6.6-.6,7.7-16.3ZM683.9,527.4l-1.6,4.1,3,.3-1.4-4.3Z"/>
      <path class="st1" d="M696.6,522.7l8,.8c.9,0,1.8.3,2.7.5.9.3,1.7.6,2.4,1.1.7.5,1.3,1.1,1.7,1.9.4.8.6,1.7.6,2.7,0,1-.3,1.9-.9,2.7-.6.7-1.4,1.3-2.4,1.6l4.5,7.3-7.2-.7-3.4-6.4h-.2s-.2,6.1-.2,6.1l-6-.6.4-17ZM702.4,530.4h1.2c.2.1.4.1.7.1.3,0,.5,0,.7-.1.2,0,.4-.2.6-.4.2-.2.2-.4.2-.7s0-.5-.2-.7c-.1-.2-.3-.3-.5-.4-.2-.1-.4-.2-.6-.2-.2,0-.4,0-.6,0h-1.5c0-.1,0,2.6,0,2.6Z"/>
      <path class="st1" d="M721.1,532.4v9.6s-5.8-.6-5.8-.6l.4-17,8.1.8,3.1,9.5h.1s3.1-8.8,3.1-8.8l8.4.8-.4,17-6.1-.6.4-9.5h-.2s-3.7,9.2-3.7,9.2l-4.4-.4-3.2-9.9h-.1Z"/>
      <path class="st1" d="M747.8,527.6l6.6.6,6.8,17.7-6.8-.6-.9-2.6-5.9-.6-1,2.4-6.6-.6,7.7-16.3ZM750.9,533.8l-1.6,4.1,3,.3-1.4-4.3Z"/>
      <path class="st1" d="M763.5,529.1l6.3.6-.4,17-6.3-.6.4-17Z"/>
      <path class="st1" d="M773.7,530.1l6.2.6,5.1,9.1h.1s0-8.6,0-8.6l5.9.6-.4,17-6.4-.6-4.9-8.6h-.1s0,8.1,0,8.1l-5.9-.6.4-17Z"/>
      <path class="st1" d="M794.9,532.1l12.7,1.2v4.8c-.1,0-7-.7-7-.7v1.5s6.4.6,6.4.6v4.4c-.1,0-6.6-.6-6.6-.6v1.6s7.3.7,7.3.7v4.8c-.1,0-13.3-1.3-13.3-1.3l.4-17Z"/>
      <path class="st1" d="M822.3,552.2c-.8,0-1.6-.3-2.4-.6-.7-.3-1.4-.7-2-1.1-.6-.4-1.1-.9-1.5-1.5-.4-.6-.7-1.2-.9-1.8l5.4-1.4c0,.3.2.5.4.7.2.2.4.3.7.4.4,0,.7,0,.8-.3.1-.2.2-.5.2-.9l.3-10.9,6.3.6-.3,10.7c0,.8-.1,1.5-.3,2.3-.2.8-.6,1.5-1.1,2.1-.5.6-1.2,1.1-2.1,1.4s-2.1.4-3.5.3Z"/>
      <path class="st1" d="M838.3,536.3l6.6.6,6.8,17.7-6.8-.6-.9-2.6-5.9-.6-1,2.4-6.6-.6,7.7-16.3ZM841.4,542.5l-1.6,4.1,3,.3-1.4-4.3Z"/>
      <path class="st1" d="M854,537.8l6.2.6,5.1,9.1h.1s0-8.6,0-8.6l5.9.6-.4,17-6.4-.6-4.9-8.6h-.1s0,8.1,0,8.1l-5.9-.6.4-17Z"/>
      <path class="st1" d="M875.2,539.8l6.3.6-.4,17-6.3-.6.4-17Z"/>
      <path class="st1" d="M894.2,558.6l-6.2-.6.3-12.2-4.6-.4v-4.8c.1,0,15.5,1.5,15.5,1.5v4.8c-.1,0-4.7-.4-4.7-.4l-.3,12.2Z"/>
      <path class="st1" d="M912.7,553.9l-5.1-.5-.2,6.5-6.2-.6.4-17,6.2.6v5.8c-.1,0,4.9.5,4.9.5v-5.8c.1,0,6.4.6,6.4.6l-.4,17-6.2-.6.2-6.5Z"/>
      <path class="st1" d="M928.3,544.9l6.6.6,6.8,17.7-6.8-.6-.9-2.6-5.9-.6-1,2.4-6.6-.6,7.7-16.3ZM931.4,551.1l-1.6,4.1,3,.3-1.4-4.3Z"/>
      <path class="st1" d="M954.6,564.9c-.8,0-1.6-.3-2.4-.6-.7-.3-1.4-.7-2-1.1-.6-.4-1.1-.9-1.5-1.5-.4-.6-.7-1.2-.9-1.8l5.4-1.4c0,.3.2.5.4.7.2.2.4.3.7.4.4,0,.7,0,.8-.3.1-.2.2-.5.2-.9l.3-10.9,6.3.6-.3,10.7c0,.8-.1,1.5-.3,2.3-.2.8-.6,1.5-1.1,2.1-.5.6-1.2,1.1-2.1,1.4-.9.3-2.1.4-3.5.3Z"/>
      <path class="st1" d="M964.7,556.8c0-1.4.3-2.6.9-3.6.6-1,1.3-1.9,2.2-2.6s2-1.2,3.3-1.5c1.3-.3,2.6-.4,4.1-.2,1.5.1,2.8.5,4.1,1s2.3,1.2,3.2,2.1c.9.9,1.6,1.9,2.1,3,.5,1.1.7,2.4.7,3.8s-.3,2.6-.9,3.6c-.6,1.1-1.3,2-2.2,2.7-.9.7-2.1,1.2-3.3,1.5-1.3.3-2.6.4-4.1.3-1.5-.1-2.8-.5-4.1-1-1.2-.6-2.3-1.3-3.2-2.1-.9-.9-1.6-1.9-2.1-3.1-.5-1.2-.7-2.4-.7-3.8ZM971.3,557.4c0,.6,0,1.1.2,1.6.2.5.4.9.7,1.3.3.4.7.7,1.1.9.4.2.9.4,1.5.4.5,0,1,0,1.5-.1.4-.1.8-.4,1.2-.7.3-.3.6-.7.8-1.1.2-.4.3-.9.3-1.5,0-.5,0-1.1-.2-1.5s-.4-.9-.7-1.2c-.3-.3-.7-.6-1.1-.8-.4-.2-.9-.4-1.4-.4-.5,0-1,0-1.5.1-.5.1-.9.3-1.2.6-.3.3-.6.6-.8,1.1-.2.4-.3.9-.3,1.5Z"/>
      <path class="st1" d="M988.7,550.7l6.2.6,5.1,9.1h.1s0-8.6,0-8.6l5.9.6-.4,17-6.4-.6-4.9-8.6h-.1s0,8.1,0,8.1l-5.9-.6.4-17Z"/>
      <path class="st1" d="M1009.9,552.7l12.7,1.2v4.8c-.1,0-7-.7-7-.7v1.5s6.4.6,6.4.6v4.4c-.1,0-6.6-.6-6.6-.6v1.6s7.3.7,7.3.7v4.8c-.1,0-13.3-1.3-13.3-1.3l.4-17Z"/>
      <path class="st1" d="M1031.8,572.3c-.7,0-1.5-.2-2.2-.4-.7-.2-1.4-.4-2.1-.7-.7-.3-1.3-.6-1.9-1-.6-.4-1.1-.8-1.6-1.2l3.9-3.4c.4.5,1,.9,1.7,1.3.7.4,1.5.6,2.2.7.3,0,.7,0,1,0,.3,0,.4-.3.4-.6,0-.2,0-.3-.1-.4,0-.1-.3-.3-.5-.4-.2-.1-.6-.3-1-.5-.4-.2-1-.4-1.6-.7-.6-.3-1.2-.5-1.8-.9-.6-.3-1.1-.7-1.5-1.1-.4-.4-.8-.9-1-1.5-.2-.6-.4-1.2-.3-2,0-1.1.3-1.9.8-2.6.5-.7,1.1-1.2,1.9-1.6.8-.4,1.6-.7,2.5-.8.9-.1,1.8-.1,2.8,0,1.2.1,2.5.5,3.7,1,1.3.6,2.3,1.3,3.3,2.2l-4,3.3c-.4-.5-.9-.9-1.5-1.2-.6-.3-1.2-.5-1.6-.5-.5,0-.8,0-1.1,0-.3,0-.4.3-.4.5,0,.3.1.5.4.6.3.2.7.4,1.4.6.7.3,1.3.5,2.1.9s1.4.7,2,1.2c.6.5,1.1,1,1.5,1.6.4.6.6,1.4.5,2.3,0,1-.3,1.9-.7,2.6s-1.1,1.3-1.8,1.7c-.7.4-1.6.7-2.5.9-.9.2-1.8.2-2.8.1Z"/>
    </g>
  </g>
  <g>
    <path class="st1" d="M79.4,87.4l-6.9-.6-.9-26.6,11,1c3,.3,5.3,1.3,6.9,3,1.6,1.7,2.5,4,2.6,6.8,0,2.8-.6,4.9-2.1,6.3-1.5,1.4-3.8,2-6.7,1.7l-4.1-.4.3,8.8ZM78.9,73l2.3.2c2.5.2,3.8-.7,3.7-3,0-2.2-1.4-3.4-3.9-3.7l-2.3-.2.2,6.6Z"/>
    <path class="st1" d="M95.1,70.9l6.4.6v3c.7-1,1.5-1.8,2.5-2.3,1-.5,2.1-.7,3.4-.5.2,0,.3,0,.5,0,.2,0,.4,0,.7.1l.2,6.1c-.9-.5-1.8-.8-2.8-.9-1.5-.1-2.6.2-3.3,1-.7.8-1,2.1-1,3.8l.3,7.8-6.4-.6-.6-18.1Z"/>
    <path class="st1" d="M117.8,83.1c0,2.7,1.4,4.2,4,4.5,1.4.1,2.4-.3,3.1-1.4l6.1.6c-1.1,4-4.1,5.8-9.1,5.3-1.5-.1-2.9-.5-4.2-1.1-1.3-.6-2.4-1.3-3.3-2.3-.9-.9-1.7-2-2.2-3.2-.5-1.2-.8-2.6-.9-4,0-1.5.1-2.8.6-4,.4-1.2,1.1-2.1,1.9-2.9.8-.8,1.9-1.3,3.1-1.7,1.2-.3,2.6-.4,4.1-.3,1.5.1,2.9.5,4.1,1.1,1.2.6,2.3,1.3,3.2,2.3.9.9,1.6,2.1,2,3.4.5,1.3.8,2.7.8,4.3v.7s-13.4-1.3-13.4-1.3ZM125.1,80.1c-.2-.9-.7-1.7-1.4-2.3-.7-.6-1.5-.9-2.4-1-1,0-1.8,0-2.4.5-.6.5-1,1.2-1.1,2.1l7.3.7Z"/>
    <path class="st1" d="M146.5,80.3c-1.2-.7-2.3-1.1-3.5-1.2-.6,0-1.1,0-1.4.2-.4.2-.5.5-.5.9,0,.2,0,.4.1.5,0,.1.2.3.4.4.2.1.5.3.9.4.4.1.9.3,1.5.5,1.8.5,3.1,1.3,4,2.3.9,1,1.4,2.2,1.4,3.6,0,1.1-.1,2-.5,2.8-.4.8-1,1.5-1.7,2-.7.5-1.6.9-2.7,1.1-1,.2-2.2.3-3.5.1-2.4-.2-4.9-1.1-7.3-2.8l2.2-4.3c1.8,1.4,3.5,2.2,5.1,2.3.6,0,1.1,0,1.4-.3.4-.2.5-.5.5-.9,0-.2,0-.4-.1-.6,0-.2-.2-.3-.4-.5-.2-.1-.5-.3-.8-.4-.4-.1-.8-.3-1.4-.5-2-.6-3.4-1.3-4.2-2.2-.8-.9-1.2-2-1.3-3.4,0-1,.1-1.9.5-2.7.3-.8.9-1.4,1.5-1.9.7-.5,1.5-.9,2.5-1.1,1-.2,2.1-.3,3.3-.1,2,.2,3.9.8,5.8,1.7l-2,4Z"/>
    <path class="st1" d="M158.4,86.9c0,2.7,1.4,4.2,4,4.5,1.4.1,2.4-.3,3.1-1.4l6.1.6c-1.1,4-4.1,5.8-9.1,5.3-1.5-.1-2.9-.5-4.2-1.1-1.3-.6-2.4-1.3-3.3-2.3-.9-.9-1.7-2-2.2-3.2-.5-1.2-.8-2.6-.9-4,0-1.5.1-2.8.6-4,.4-1.2,1.1-2.1,1.9-2.9.8-.8,1.9-1.3,3.1-1.7,1.2-.3,2.6-.4,4.1-.3,1.5.1,2.9.5,4.1,1.1,1.2.6,2.3,1.3,3.2,2.3.9.9,1.6,2.1,2,3.4.5,1.3.8,2.7.8,4.3v.7s-13.4-1.3-13.4-1.3ZM165.7,83.9c-.2-.9-.7-1.7-1.4-2.3-.7-.6-1.5-.9-2.4-1-1,0-1.8,0-2.4.5-.6.5-1,1.2-1.1,2.1l7.3.7Z"/>
    <path class="st1" d="M175,78.4l6.4.6v2.3c.9-1,1.8-1.6,2.6-1.9.9-.3,1.9-.4,3.1-.3,1.3.1,2.4.4,3.3.9.9.5,1.7,1.1,2.4,2,.5.7.9,1.4,1.1,2.1.2.8.3,1.6.4,2.6l.4,11.5-6.4-.6-.3-9.1c0-.9-.1-1.6-.3-2.2-.1-.6-.4-1-.7-1.4-.3-.3-.6-.5-1-.7-.4-.2-.7-.2-1.1-.3-1.1-.1-1.9.1-2.4.7-.6.6-.8,1.5-.8,2.7l.3,9.7-6.4-.6-.6-18.1Z"/>
    <path class="st1" d="M205.6,86.5l.4,12.8-6.4-.6-.4-12.8-2.1-.2-.2-5.3,2.1.2-.2-5.4,6.4.6.2,5.4,3.6.3.2,5.3-3.6-.3Z"/>
    <path class="st1" d="M217.8,92.5c0,2.7,1.4,4.2,4,4.5,1.4.1,2.4-.3,3.1-1.4l6.1.6c-1.1,4-4.1,5.8-9.1,5.3-1.5-.1-2.9-.5-4.2-1.1-1.3-.6-2.4-1.3-3.3-2.3-.9-.9-1.7-2-2.2-3.2-.5-1.2-.8-2.6-.9-4,0-1.5.1-2.8.6-4,.4-1.2,1.1-2.1,1.9-2.9.8-.8,1.9-1.3,3.1-1.7,1.2-.3,2.6-.4,4.1-.3,1.5.1,2.9.5,4.1,1.1,1.2.6,2.3,1.3,3.2,2.3.9.9,1.6,2.1,2,3.4.5,1.3.8,2.7.8,4.3v.7s-13.4-1.3-13.4-1.3ZM225.2,89.4c-.2-.9-.7-1.7-1.4-2.3-.7-.6-1.5-.9-2.4-1-1,0-1.8,0-2.4.5-.6.5-1,1.2-1.1,2.1l7.3.7Z"/>
    <path class="st1" d="M248,74.1l6.4.6,1,29.3-6.4-.6v-2c-1.4,1.6-3.2,2.3-5.5,2.1-1.3-.1-2.5-.5-3.6-1.1-1.1-.6-2.1-1.4-2.9-2.3-.9-.9-1.5-2-2-3.2-.5-1.2-.8-2.5-.8-3.9,0-1.3.1-2.5.5-3.6.4-1.1,1-2.1,1.7-2.9.8-.8,1.7-1.4,2.8-1.8,1.1-.4,2.3-.5,3.6-.4,2.2.2,4.1,1.2,5.7,2.9l-.5-13ZM240.7,93.5c0,.6.1,1.1.4,1.7.2.5.5,1,.9,1.4.4.4.8.7,1.3,1,.5.3,1.1.4,1.6.5.6,0,1.1,0,1.6-.2.5-.2.9-.4,1.3-.8.4-.3.6-.7.8-1.2.2-.5.3-1,.3-1.6,0-.6-.1-1.1-.4-1.6-.2-.5-.5-1-.9-1.4-.4-.4-.8-.7-1.3-1-.5-.3-1-.4-1.6-.5-.6,0-1.1,0-1.6.2-.5.2-.9.4-1.3.8-.4.3-.6.7-.8,1.2-.2.5-.3,1-.3,1.5Z"/>
    <path class="st1" d="M277,76.8l.5,13c1.4-1.4,3.3-2,5.5-1.8,1.3.1,2.6.5,3.7,1.1s2.1,1.4,2.9,2.3c.8.9,1.5,2,1.9,3.2.5,1.2.8,2.5.8,3.8,0,1.3-.1,2.6-.6,3.7-.4,1.1-1,2.1-1.8,2.9-.8.8-1.7,1.4-2.8,1.8s-2.3.5-3.6.4c-2.3-.2-4.2-1.3-5.6-3.1v2c0,0-6.3-.6-6.3-.6l-1-29.3,6.4.6ZM285.7,97.8c0-.6-.1-1.1-.4-1.6-.2-.5-.5-1-.9-1.4-.4-.4-.8-.8-1.3-1-.5-.3-1-.4-1.6-.5-.6,0-1.1,0-1.6.2-.5.2-.9.4-1.3.8-.4.3-.6.8-.8,1.2-.2.5-.3,1-.3,1.6,0,.6.1,1.1.4,1.6.2.5.5,1,.9,1.4.4.4.8.7,1.3,1,.5.3,1,.4,1.6.5.6,0,1.1,0,1.6-.2.5-.2.9-.4,1.3-.8.3-.3.6-.7.8-1.2.2-.5.3-1,.3-1.5Z"/>
    <path class="st1" d="M301.8,105.8l-9.2-16.4,7.4.7,5.1,9.7,4.3-8.8,7.3.7-13.5,25.7-7.1-.7,5.7-10.9Z"/>
    <path class="st1" d="M344.4,97.4l13.7,1.3c0,1.4,0,2.7,0,3.8,0,1.1-.3,2.2-.6,3.1-.4,1.3-1.1,2.5-1.9,3.5-.8,1-1.8,1.8-2.9,2.4-1.1.6-2.3,1-3.7,1.3s-2.8.3-4.3.2c-2.1-.2-4-.7-5.7-1.6-1.7-.8-3.2-1.9-4.5-3.3-1.3-1.3-2.3-2.9-3-4.7-.7-1.8-1.1-3.7-1.2-5.8,0-2.1.2-3.9.8-5.6.6-1.7,1.5-3,2.7-4.2,1.2-1.1,2.6-1.9,4.3-2.4,1.7-.5,3.6-.7,5.8-.5,2.8.3,5.2,1.1,7.3,2.5,2.1,1.4,3.8,3.4,5.1,6l-6.4,2.1c-.7-1.5-1.5-2.6-2.5-3.4-1-.7-2.1-1.1-3.4-1.3-1,0-2,0-2.8.3-.8.3-1.5.8-2.1,1.5-.6.7-1,1.5-1.3,2.5-.3,1-.4,2.1-.4,3.3,0,1.1.2,2.2.5,3.2.3,1,.8,1.9,1.4,2.6.6.8,1.4,1.4,2.2,1.8.9.5,1.9.8,3,.9.7,0,1.3,0,2,0,.6,0,1.2-.3,1.7-.6.5-.3.9-.7,1.2-1.2.3-.5.5-1.1.6-1.9l-5.7-.5-.2-5.4Z"/>
    <path class="st1" d="M361.3,100.6c0-2,.2-3.8.9-5.4.7-1.6,1.6-3,2.9-4.2,1.2-1.1,2.7-2,4.5-2.5,1.8-.5,3.7-.7,5.9-.5,2.1.2,4.1.7,5.9,1.6,1.8.9,3.4,2,4.8,3.4,1.3,1.4,2.4,3,3.2,4.7.8,1.8,1.2,3.6,1.3,5.6,0,2-.2,3.8-.9,5.4-.7,1.6-1.6,3-2.9,4.2-1.3,1.1-2.8,2-4.5,2.5-1.8.5-3.7.7-5.9.5-2.2-.2-4.1-.7-6-1.6-1.8-.9-3.4-2-4.7-3.4-1.3-1.4-2.4-3-3.2-4.7-.8-1.8-1.2-3.6-1.3-5.6ZM368.5,101.3c0,1.1.3,2.1.7,3,.4.9,1,1.8,1.7,2.5s1.5,1.3,2.4,1.8c.9.4,1.9.7,2.9.8,1,0,2,0,2.8-.3.9-.3,1.7-.7,2.3-1.3.7-.6,1.2-1.3,1.6-2.2.4-.9.5-1.8.5-2.9,0-1.1-.3-2.1-.7-3-.4-.9-1-1.8-1.7-2.5-.7-.7-1.5-1.3-2.4-1.8-.9-.4-1.9-.7-2.9-.8-1,0-2,0-2.8.3-.9.3-1.7.7-2.3,1.3s-1.2,1.3-1.5,2.2c-.4.9-.5,1.8-.5,2.9Z"/>
    <path class="st1" d="M409.3,98.6c-.8-.7-1.5-1.2-2.3-1.6-.8-.4-1.5-.6-2.2-.6-.9,0-1.6,0-2.2.4-.5.4-.8.9-.8,1.6,0,.5.2.9.5,1.2.3.3.7.6,1.1.9.5.3,1,.5,1.6.7.6.2,1.2.4,1.7.7,2.3,1,4,2.1,5,3.5,1.1,1.4,1.7,3,1.7,5.1,0,1.4-.1,2.6-.6,3.6-.4,1.1-1.1,1.9-1.9,2.6-.9.7-1.9,1.2-3.2,1.5-1.3.3-2.7.4-4.3.2-3.3-.3-6.5-1.6-9.4-3.9l2.8-5.3c1.1,1,2.1,1.8,3.1,2.3,1,.5,2,.9,3,.9,1.1.1,2,0,2.5-.5.5-.5.8-1,.8-1.7,0-.4,0-.8-.2-1.1-.2-.3-.4-.6-.7-.9-.3-.3-.8-.5-1.3-.8-.5-.3-1.2-.6-1.9-.9-.9-.4-1.8-.8-2.6-1.2-.9-.4-1.6-.9-2.3-1.6-.7-.6-1.3-1.4-1.7-2.3-.4-.9-.7-2-.7-3.3,0-1.3.1-2.5.5-3.5.4-1,1-1.9,1.7-2.6.8-.7,1.7-1.2,2.8-1.5,1.1-.3,2.4-.4,3.8-.3,1.3.1,2.7.4,4.1.9,1.4.5,2.8,1.2,4.2,2l-2.6,5.1Z"/>
    <path class="st1" d="M425,119.8l-6.9-.6-.9-26.6,11,1c3,.3,5.3,1.3,6.9,3,1.6,1.7,2.5,4,2.6,6.8,0,2.8-.6,4.9-2.1,6.3-1.5,1.4-3.8,2-6.7,1.7l-4.1-.4.3,8.8ZM424.5,105.4l2.3.2c2.5.2,3.8-.7,3.7-3,0-2.2-1.4-3.4-3.9-3.7l-2.3-.2.2,6.6Z"/>
    <path class="st1" d="M440.2,108c0-2,.2-3.8.9-5.4.7-1.6,1.6-3,2.9-4.2,1.2-1.1,2.7-2,4.5-2.5,1.8-.5,3.7-.7,5.9-.5,2.1.2,4.1.7,5.9,1.6,1.8.9,3.4,2,4.8,3.4,1.3,1.4,2.4,3,3.2,4.7.8,1.8,1.2,3.6,1.3,5.6,0,2-.2,3.8-.9,5.4-.7,1.6-1.6,3-2.9,4.2-1.3,1.1-2.8,2-4.5,2.5-1.8.5-3.7.7-5.9.5-2.2-.2-4.1-.7-6-1.6-1.8-.9-3.4-2-4.7-3.4-1.3-1.4-2.4-3-3.2-4.7s-1.2-3.6-1.3-5.6ZM447.4,108.7c0,1.1.3,2.1.7,3,.4.9,1,1.8,1.7,2.5.7.7,1.5,1.3,2.4,1.8.9.4,1.9.7,2.9.8,1,0,2,0,2.8-.3.9-.3,1.7-.7,2.3-1.3.7-.6,1.2-1.3,1.6-2.2.4-.9.5-1.8.5-2.9,0-1.1-.3-2.1-.7-3-.4-.9-1-1.8-1.7-2.5-.7-.7-1.5-1.3-2.4-1.8-.9-.4-1.9-.7-2.9-.8-1,0-2,0-2.8.3-.9.3-1.7.7-2.3,1.3-.7.6-1.2,1.3-1.5,2.2-.4.9-.5,1.8-.5,2.9Z"/>
    <path class="st1" d="M499,108.7l6.4.6.6,18.1-6.4-.6v-2c-1.4,1.6-3.2,2.3-5.5,2.1-1.3-.1-2.5-.5-3.6-1.1s-2.1-1.4-2.9-2.3c-.9-.9-1.5-2-2-3.2-.5-1.2-.8-2.5-.8-3.9,0-1.3.1-2.5.5-3.6.4-1.1,1-2.1,1.8-2.9.8-.8,1.7-1.4,2.8-1.8,1.1-.4,2.3-.5,3.6-.4,2.2.2,4.1,1.2,5.7,2.9v-1.8ZM491.3,117c0,.6.1,1.1.4,1.7.2.5.5,1,.9,1.4.4.4.8.7,1.3,1,.5.3,1.1.4,1.6.5.6,0,1.1,0,1.6-.2.5-.2.9-.4,1.3-.8.4-.3.6-.7.8-1.2.2-.5.3-1,.3-1.6,0-.6-.1-1.1-.4-1.6-.2-.5-.5-1-.9-1.4-.4-.4-.8-.7-1.3-1-.5-.3-1-.4-1.6-.5-.6,0-1.1,0-1.6.2-.5.2-.9.4-1.3.8-.3.3-.6.7-.8,1.2-.2.5-.3,1-.3,1.5Z"/>
    <path class="st1" d="M509.7,109.7l6.4.6v2.3c.9-1,1.8-1.6,2.6-1.9.9-.3,1.9-.4,3.1-.3,1.3.1,2.4.4,3.3.9.9.5,1.7,1.1,2.4,2,.5.7.9,1.4,1.1,2.1.2.8.3,1.6.4,2.6l.4,11.5-6.4-.6-.3-9.1c0-.9-.1-1.6-.3-2.2-.1-.6-.4-1-.7-1.4-.3-.3-.6-.5-1-.7-.4-.2-.7-.2-1.1-.3-1.1-.1-1.9.1-2.4.7-.6.6-.8,1.5-.8,2.7l.3,9.7-6.4-.6-.6-18.1Z"/>
    <path class="st1" d="M546.5,102l6.4.6,1,29.3-6.4-.6v-2c-1.4,1.6-3.2,2.3-5.5,2.1-1.3-.1-2.5-.5-3.6-1.1-1.1-.6-2.1-1.4-3-2.3-.9-.9-1.5-2-2-3.2-.5-1.2-.8-2.5-.8-3.9,0-1.3.1-2.5.5-3.6.4-1.1,1-2.1,1.7-2.9.8-.8,1.7-1.4,2.8-1.8,1.1-.4,2.3-.5,3.6-.4,2.2.2,4.1,1.2,5.7,2.9l-.5-13ZM539.2,121.5c0,.6.1,1.1.4,1.7.2.5.5,1,.9,1.4.4.4.8.7,1.3,1,.5.3,1.1.4,1.6.5.6,0,1.1,0,1.6-.2.5-.2.9-.4,1.3-.8s.6-.7.8-1.2c.2-.5.3-1,.3-1.6,0-.6-.1-1.1-.4-1.6-.2-.5-.5-1-.9-1.4s-.8-.7-1.3-1c-.5-.3-1-.4-1.6-.5-.6,0-1.1,0-1.6.2-.5.2-.9.4-1.3.8-.4.3-.6.7-.8,1.2-.2.5-.3,1-.3,1.5Z"/>
    <path class="st1" d="M583.2,119.8l13.7,1.3c0,1.4,0,2.7,0,3.8,0,1.1-.3,2.2-.6,3.1-.4,1.3-1.1,2.5-1.9,3.5-.8,1-1.8,1.8-2.9,2.4-1.1.6-2.3,1-3.7,1.3-1.3.2-2.8.3-4.3.2-2.1-.2-4-.7-5.7-1.6-1.7-.8-3.2-1.9-4.5-3.3-1.3-1.3-2.3-2.9-3-4.7-.7-1.8-1.1-3.7-1.2-5.8,0-2.1.2-3.9.8-5.6.6-1.7,1.5-3,2.7-4.2s2.6-1.9,4.3-2.4c1.7-.5,3.6-.7,5.8-.5,2.8.3,5.2,1.1,7.3,2.5,2.1,1.4,3.8,3.4,5.1,6l-6.4,2.1c-.7-1.5-1.5-2.6-2.5-3.4-1-.7-2.1-1.1-3.4-1.3-1,0-2,0-2.8.3s-1.5.8-2.1,1.5c-.6.7-1,1.5-1.3,2.5-.3,1-.4,2.1-.4,3.3,0,1.1.2,2.2.5,3.2.3,1,.8,1.9,1.4,2.6.6.8,1.4,1.4,2.2,1.8.9.5,1.9.8,3,.9.7,0,1.3,0,2,0,.6,0,1.2-.3,1.7-.6.5-.3.9-.7,1.2-1.2.3-.5.5-1.1.6-1.9l-5.7-.5-.2-5.4Z"/>
    <path class="st1" d="M607.7,110.4l.7,20.7,8.3.8.2,5.9-15.1-1.4-.9-26.6,6.9.6Z"/>
    <path class="st1" d="M625.9,112.1l.5,14.5c0,.8,0,1.6.2,2.4,0,.8.3,1.6.6,2.3.3.7.8,1.3,1.4,1.7.6.5,1.5.8,2.7.9,1.1.1,2,0,2.6-.4.6-.4,1-.8,1.3-1.5.3-.6.4-1.3.5-2.2,0-.8,0-1.6,0-2.4l-.5-14.5,6.8.6.5,15.4c.1,4.1-.7,7.1-2.5,8.8s-4.7,2.4-8.6,2c-3.9-.4-6.8-1.6-8.8-3.7-2-2.1-3-5.2-3.2-9.3l-.5-15.4,6.9.6Z"/>
    <path class="st1" d="M657.8,121l.7,20.7-6.9-.6-.7-20.7-5.7-.5-.2-5.9,18.2,1.7.2,5.9-5.7-.5Z"/>
    <path class="st1" d="M676.6,122.7l.7,20.7-6.9-.6-.7-20.7-5.7-.5-.2-5.9,18.2,1.7.2,5.9-5.7-.5Z"/>
    <path class="st1" d="M684.1,130.9c0-2,.2-3.8.9-5.4.7-1.6,1.6-3,2.9-4.2,1.2-1.1,2.7-2,4.5-2.5,1.8-.5,3.7-.7,5.9-.5,2.1.2,4.1.7,5.9,1.6,1.8.9,3.4,2,4.8,3.4s2.4,3,3.2,4.7c.8,1.8,1.2,3.6,1.3,5.6s-.2,3.8-.9,5.4c-.7,1.6-1.6,3-2.9,4.2-1.3,1.1-2.8,2-4.5,2.5-1.8.5-3.7.7-5.9.5-2.2-.2-4.1-.7-6-1.6-1.8-.9-3.4-2-4.7-3.4-1.3-1.4-2.4-3-3.2-4.7-.8-1.8-1.2-3.6-1.3-5.6ZM691.3,131.5c0,1.1.3,2.1.7,3,.4.9,1,1.8,1.7,2.5.7.7,1.5,1.3,2.4,1.8.9.4,1.9.7,2.9.8,1,0,2,0,2.8-.3.9-.3,1.7-.7,2.3-1.3.7-.6,1.2-1.3,1.6-2.2.4-.9.5-1.8.5-2.9,0-1.1-.3-2.1-.7-3-.4-.9-1-1.8-1.7-2.5-.7-.7-1.5-1.3-2.4-1.8-.9-.4-1.9-.7-2.9-.8-1,0-2,0-2.8.3s-1.7.7-2.3,1.3c-.7.6-1.2,1.3-1.5,2.2-.4.9-.5,1.8-.5,2.9Z"/>
    <path class="st1" d="M718.3,147.3l-.9-26.6,6.9.6,13.3,17.4-.6-16.2,6.8.6.9,26.6-6.8-.6-13.3-17.4.6,16.2-6.9-.6Z"/>
    <path class="st1" d="M756.2,138.1l-10.1-14.7,8.2.8,5.2,7.7,4.6-6.8,8.2.8-9.2,12.9.4,12.8-6.9-.6-.4-12.8Z"/>
  </g>
  <g>
    <path class="st1" d="M218.8,52l-9.8-.9-1.4,4.5-7.3-.7,9.2-25.6,7.5.7,11,27.5-7.3-.7-1.7-4.8ZM216.7,46.5l-3.4-9.1-2.8,8.6,6.2.6Z"/>
    <path class="st1" d="M229.9,31.1l10.2,1c1.8.2,3.5.7,5.1,1.6,1.6.9,3,2,4.2,3.3,1.2,1.3,2.2,2.8,2.9,4.5.7,1.7,1.1,3.4,1.2,5.2,0,1.7-.2,3.4-.8,4.9-.6,1.5-1.5,2.9-2.6,4s-2.5,2-4,2.5c-1.6.6-3.2.8-5.1.6l-10.2-1-.9-26.6ZM237.5,52.5h1.6c1.2.3,2.3.2,3.2-.1.9-.3,1.7-.7,2.3-1.3.6-.6,1.1-1.3,1.4-2.2.3-.9.4-1.8.4-2.9,0-1.1-.2-2.1-.6-3-.4-.9-.9-1.8-1.6-2.5-.7-.7-1.5-1.3-2.4-1.8-.9-.5-2-.8-3.2-.9h-1.6c0-.1.5,14.7.5,14.7Z"/>
    <path class="st1" d="M272.8,41l-8.2-.8.2,4.4,7.7.7.2,5.9-7.7-.7.2,4.6,8.2.8.2,5.9-15.1-1.4-.9-26.6,15.1,1.4.2,5.9Z"/>
    <path class="st1" d="M284.4,36.2l.7,20.7,8.3.8.2,5.9-15.1-1.4-.9-26.6,6.9.6Z"/>
    <path class="st1" d="M314.3,60.9l-9.8-.9-1.4,4.5-7.3-.7,9.2-25.6,7.5.7,11,27.5-7.3-.7-1.7-4.8ZM312.3,55.5l-3.4-9.1-2.8,8.6,6.2.6Z"/>
    <path class="st1" d="M332.4,40.7l.9,26.6-6.9-.6-.9-26.6,6.9.6Z"/>
    <path class="st1" d="M337.9,41.3l10.2,1c1.8.2,3.5.7,5.1,1.6,1.6.9,3,2,4.2,3.3,1.2,1.3,2.2,2.8,2.9,4.5.7,1.7,1.1,3.4,1.2,5.2,0,1.7-.2,3.4-.8,4.9-.6,1.5-1.5,2.9-2.6,4-1.1,1.1-2.5,2-4,2.5-1.6.6-3.2.8-5.1.6l-10.2-1-.9-26.6ZM345.5,62.6h1.6c1.2.3,2.3.2,3.2-.1.9-.3,1.7-.7,2.3-1.3.6-.6,1.1-1.3,1.4-2.2.3-.9.4-1.9.4-2.9,0-1.1-.2-2.1-.6-3-.4-.9-.9-1.8-1.6-2.5-.7-.7-1.5-1.3-2.4-1.8-1-.5-2-.8-3.2-.9h-1.6c0-.1.5,14.7.5,14.7Z"/>
    <path class="st1" d="M380.8,51.1l-8.2-.8.2,4.4,7.7.7.2,5.9-7.7-.7.2,4.6,8.2.8.2,5.9-15.1-1.4-.9-26.6,15.1,1.4.2,5.9Z"/>
    <path class="st1" d="M412.8,54.1l-8.3-.8.2,4.4,7.5.7.2,5.9-7.5-.7.4,10.4-6.9-.6-.9-26.6,15.2,1.4.2,5.9Z"/>
    <path class="st1" d="M439.7,77.3l-8.6-.8-6.9-10.8.4,10.2-6.9-.6-.9-26.6,10.7,1c1.5.1,2.8.5,3.9,1,1.1.5,2,1.2,2.8,2,.7.8,1.3,1.7,1.7,2.8.4,1,.6,2.1.7,3.2,0,2-.4,3.6-1.3,4.8-.9,1.2-2.3,1.9-4.2,2.2l8.7,11.7ZM424,61.2h1.3c1.4.2,2.4,0,3.1-.4.7-.5,1-1.3,1-2.3,0-1.1-.4-1.9-1.2-2.5-.7-.6-1.8-1-3.2-1.1h-1.3c0-.1.2,6.4.2,6.4Z"/>
    <path class="st1" d="M448.5,51.6l.9,26.6-6.9-.6-.9-26.6,6.9.6Z"/>
    <path class="st1" d="M455,78.7l-.9-26.6,6.9.6,13.3,17.4-.6-16.2,6.8.6.9,26.6-6.8-.6-13.3-17.4.6,16.2-6.9-.6Z"/>
    <path class="st1" d="M499.8,68.1l13.7,1.3c0,1.4,0,2.7,0,3.8s-.3,2.2-.6,3.1c-.4,1.3-1.1,2.5-1.9,3.5-.8,1-1.8,1.8-2.9,2.4-1.1.6-2.3,1-3.7,1.3-1.3.2-2.8.3-4.3.2-2.1-.2-4-.7-5.7-1.6-1.7-.8-3.2-1.9-4.5-3.3-1.3-1.3-2.3-2.9-3-4.7-.7-1.8-1.1-3.7-1.2-5.8,0-2.1.2-3.9.8-5.6.6-1.7,1.5-3,2.7-4.2,1.2-1.1,2.6-1.9,4.3-2.4,1.7-.5,3.6-.7,5.8-.5,2.8.3,5.2,1.1,7.3,2.5,2.1,1.4,3.8,3.4,5.1,6l-6.4,2.1c-.7-1.5-1.5-2.6-2.5-3.4-1-.7-2.1-1.1-3.4-1.3-1,0-2,0-2.8.3-.8.3-1.5.8-2.1,1.5-.6.7-1,1.5-1.3,2.5-.3,1-.4,2.1-.4,3.3,0,1.1.2,2.2.5,3.2.3,1,.8,1.9,1.4,2.6.6.8,1.4,1.4,2.2,1.8.9.5,1.9.8,3,.9.7,0,1.3,0,2,0,.6,0,1.2-.3,1.7-.6.5-.3.9-.7,1.2-1.2.3-.5.5-1.1.6-1.9l-5.7-.5-.2-5.4Z"/>
    <path class="st1" d="M532.7,65.3l-8.2-.8.2,4.4,7.7.7.2,5.9-7.7-.7.2,4.6,8.2.8.2,5.9-15.1-1.4-.9-26.6,15.1,1.4.2,5.9Z"/>
    <path class="st1" d="M569.8,89.5l-21.3-2,6.3-6.2c1.7-1.6,3-3.1,3.9-4.2.9-1.2,1.6-2.2,2.1-3,.5-.8.7-1.5.8-2,0-.5.1-1,.1-1.4,0-.4,0-.8-.2-1.2-.1-.4-.3-.7-.6-1.1-.3-.3-.6-.6-1-.8s-.8-.3-1.3-.4c-.9,0-1.7.1-2.2.7-.5.6-.7,1.3-.7,2.2,0,.3,0,.6.1,1.1l-7.5-.7c0-1.6.1-2.9.6-4.2.5-1.2,1.1-2.2,2-3.1.9-.8,1.9-1.4,3.2-1.8,1.2-.4,2.6-.5,4.1-.4,1.5.1,2.8.5,4.1,1.1,1.3.6,2.4,1.3,3.3,2.3.9.9,1.7,2,2.2,3.2.6,1.2.9,2.5.9,3.9,0,1.5-.2,2.8-.8,3.9s-1.5,2.3-2.8,3.5l-4.2,3.7,8.6.8.2,5.9Z"/>
    <path class="st1" d="M571.7,76.4c0-2.1.1-4,.6-5.7s1.2-3.1,2.2-4.2c1-1.1,2.1-2,3.4-2.5,1.3-.5,2.8-.7,4.5-.6,1.6.2,3.2.6,4.6,1.4,1.4.8,2.6,1.9,3.6,3.2,1,1.3,1.8,2.9,2.5,4.6.6,1.8,1,3.7,1,5.8,0,2.1-.1,4-.6,5.7-.5,1.7-1.2,3.1-2.1,4.2-.9,1.1-2.1,2-3.4,2.5-1.4.5-2.9.7-4.5.6-1.7-.2-3.2-.6-4.6-1.4-1.4-.8-2.6-1.9-3.6-3.2-1-1.3-1.9-2.9-2.5-4.7-.6-1.8-1-3.7-1-5.8ZM578.5,77c0,1.2.2,2.3.4,3.2.2,1,.6,1.8,1,2.6.4.7.9,1.3,1.4,1.8.6.4,1.2.7,1.8.8.7,0,1.3,0,1.8-.4.5-.3,1-.8,1.3-1.5.3-.7.6-1.5.8-2.4.2-.9.2-2,.2-3.2,0-1.2-.2-2.2-.4-3.2-.2-1-.6-1.9-1-2.6-.4-.7-.9-1.3-1.4-1.8-.6-.4-1.2-.7-1.8-.8-.7,0-1.3,0-1.8.4-.5.3-1,.8-1.3,1.5-.4.7-.6,1.5-.8,2.4-.2,1-.2,2-.2,3.2Z"/>
    <path class="st1" d="M617.6,94l-21.3-2,6.3-6.2c1.7-1.6,3-3.1,3.9-4.2.9-1.2,1.6-2.2,2.1-3,.4-.8.7-1.5.8-2,0-.5.1-1,.1-1.4,0-.4,0-.8-.2-1.2-.1-.4-.3-.7-.6-1.1-.3-.3-.6-.6-1-.8-.4-.2-.8-.3-1.3-.4-.9,0-1.7.1-2.2.7-.5.6-.7,1.3-.7,2.2,0,.3,0,.6.1,1.1l-7.5-.7c0-1.6.1-2.9.6-4.2.5-1.2,1.1-2.2,2-3.1.9-.8,1.9-1.4,3.2-1.8,1.2-.4,2.6-.5,4.1-.4,1.5.1,2.8.5,4.1,1.1,1.3.6,2.4,1.3,3.3,2.3.9.9,1.7,2,2.2,3.2.6,1.2.9,2.5.9,3.9,0,1.5-.2,2.8-.8,3.9-.6,1.2-1.5,2.3-2.8,3.5l-4.2,3.7,8.6.8.2,5.9Z"/>
    <path class="st1" d="M637.2,69.3l-7.2,8h.1c.6-.3,1.2-.5,1.6-.6.4,0,.8,0,1.1,0,1.3.1,2.5.5,3.6,1.1,1.1.6,2.1,1.4,2.9,2.3.8.9,1.5,2,2,3.2s.8,2.4.8,3.8c0,1.4-.2,2.7-.6,3.9s-1.2,2.1-2.1,3c-.9.8-2.1,1.4-3.5,1.8-1.4.4-2.9.5-4.6.3-1.8-.2-3.3-.6-4.7-1.2-1.4-.6-2.6-1.5-3.6-2.4-1-1-1.8-2.1-2.3-3.3-.6-1.2-.9-2.5-.9-3.9,0-1.5.2-3.1.8-4.8.6-1.7,1.6-3.3,2.9-4.9l5.9-6.9,8,.7ZM626.4,85.7c0,.6.2,1.2.4,1.7.3.6.6,1,1,1.5.4.4.9.8,1.4,1.1.5.3,1.1.5,1.7.5s1.2,0,1.7-.2c.5-.2,1-.5,1.4-.8.4-.4.7-.8.9-1.3s.3-1.1.3-1.7c0-.6-.2-1.2-.4-1.7-.3-.6-.6-1-1-1.5-.4-.4-.9-.8-1.4-1.1-.5-.3-1.1-.5-1.7-.5-.6,0-1.2,0-1.7.2-.5.2-1,.5-1.4.8-.4.4-.7.8-.9,1.3-.2.5-.3,1.1-.3,1.7Z"/>
  </g>
</svg>